<svg 
 xmlns="http://www.w3.org/2000/svg"
 xmlns:xlink="http://www.w3.org/1999/xlink"
 width="16px" height="16px">
<path fill-rule="evenodd"  fill="rgb(115, 71, 193)"
 d="M0.167,7.666 C0.167,11.809 3.524,15.166 7.667,15.166 C11.808,15.166 15.167,11.809 15.167,7.666 C15.167,3.525 11.808,0.166 7.667,0.166 C3.524,0.166 0.167,3.525 0.167,7.666 ZM0.744,7.666 C0.744,6.663 0.961,5.711 1.344,4.849 L4.646,13.896 C2.337,12.775 0.744,10.406 0.744,7.666 ZM7.667,14.588 C6.987,14.588 6.331,14.489 5.711,14.307 L7.788,8.273 L9.916,14.101 C9.930,14.136 9.947,14.166 9.965,14.195 C9.246,14.450 8.472,14.588 7.667,14.588 ZM13.261,7.536 C13.655,6.549 13.788,5.760 13.788,5.058 C13.788,4.803 13.771,4.566 13.740,4.345 C14.280,5.332 14.587,6.463 14.587,7.667 C14.587,10.221 13.204,12.450 11.147,13.649 L13.261,7.536 ZM11.768,5.408 C12.031,5.869 12.339,6.461 12.339,7.317 C12.339,7.910 12.163,8.655 11.812,9.555 L11.122,11.861 L8.620,4.421 C9.038,4.399 9.412,4.355 9.412,4.355 C9.785,4.311 9.740,3.764 9.369,3.784 C9.369,3.784 8.247,3.873 7.523,3.873 C6.843,3.873 5.701,3.784 5.701,3.784 C5.327,3.764 5.284,4.334 5.656,4.355 C5.656,4.355 6.010,4.399 6.383,4.421 L7.461,7.376 L5.946,11.918 L3.425,4.421 C3.843,4.399 4.218,4.355 4.218,4.355 C4.591,4.311 4.546,3.764 4.174,3.784 C4.174,3.784 3.053,3.873 2.328,3.873 C2.199,3.873 2.046,3.869 1.883,3.865 C3.121,1.986 5.249,0.744 7.667,0.744 C9.469,0.744 11.109,1.434 12.340,2.563 C12.311,2.560 12.281,2.557 12.252,2.557 C11.570,2.557 11.089,3.149 11.089,3.784 C11.089,4.356 11.418,4.838 11.768,5.408 Z"/>
</svg>